<svg xmlns="http://www.w3.org/2000/svg" viewBox="0 0 500 500" enable-background="new 0 0 500 500"><g><g><path fill="#999" d="M80.5 176.1l16 9.3.8-2.1-4.1-2.3 1.1-2.9 4.6 1.1.9-2.2-18.1-4-1.2 3.1zm2.4-.8l9.6 2.4-.9 2.4-8.7-4.8zm16.6-7.1l-1.1-.5c-.5-.2-1.1-.4-1.6-.4-.5-.1-1.1 0-1.9.1l-3.8.7c-1.1.2-1.9.2-2.5-.1l-.8-.4c-.7-.3-1.1-.6-1.3-.8-.2-.2-.2-.5 0-.9.1-.3.3-.5.6-.5s.7.1 1.2.3l1.6.7 1-2.2-1.5-.7c-1.2-.5-2.1-.7-2.8-.5-.7.2-1.3.8-1.7 1.8-.5 1.1-.5 2-.2 2.8.4.8 1.1 1.5 2.3 2l1.2.5c.4.2.8.3 1.3.3s1 0 1.6-.1l4.1-.8h.1c1.1-.2 2-.1 2.6.1l1 .4c.8.3 1.3.7 1.5.9.2.3.2.6 0 1-.2.3-.4.5-.7.6-.3 0-.7-.1-1.3-.3l-1.7-.8-1 2.2 1.7.7c1.2.6 2.2.7 2.9.5.7-.2 1.3-.9 1.8-2s.5-2.1.2-2.9c-.7-.5-1.5-1.2-2.8-1.7zm3.9-7.8l-1.1-.5c-.5-.3-1-.4-1.5-.5-.5-.1-1.1-.1-2 0l-3.9.5c-1.1.2-1.9.1-2.5-.2l-.8-.4c-.7-.3-1.1-.6-1.3-.9-.2-.3-.2-.6 0-.9.2-.3.4-.5.6-.5.3 0 .7.1 1.2.4l1.6.8 1.1-2.1-1.4-.7c-1.1-.6-2.1-.8-2.8-.6-.7.2-1.3.8-1.8 1.7-.5 1-.6 2-.3 2.8.3.8 1 1.5 2.2 2.1l1.1.6c.4.2.8.3 1.3.4.5.1 1 .1 1.6 0l4.1-.5h.1c1.1-.1 2 0 2.6.3l1 .5c.8.4 1.2.7 1.4 1 .2.3.2.6 0 1-.2.3-.4.5-.7.5-.3 0-.7-.1-1.3-.4l-1.7-.8-1.1 2.1 1.6.8c1.2.6 2.2.8 2.9.6.7-.2 1.3-.8 1.9-1.9.6-1.1.7-2 .3-2.9s-1.1-1.7-2.4-2.3zm4-8.4l-7.9-4.6c-1.6-.9-2.8-1.4-3.7-1.3-.9.1-1.6.7-2.3 1.9-.7 1.2-.9 2.2-.6 3 .3.8 1.3 1.7 2.9 2.6l7.9 4.6c1.6.9 2.9 1.4 3.7 1.2.9-.1 1.7-.7 2.3-1.9.7-1.2.9-2.2.6-3-.3-.7-1.3-1.6-2.9-2.5zm.8 4.7c-.2.4-.6.6-.9.6-.4 0-1-.3-1.9-.8l-8.6-5.1c-.9-.5-1.4-.9-1.6-1.3-.2-.3-.2-.7.1-1.1.2-.4.6-.6 1-.6s1 .3 1.9.8l8.6 5.1c.9.5 1.4.9 1.6 1.3 0 .3 0 .7-.2 1.1zm5-11.9l-1.4-.9-1.3 2 1.4.9c.7.4 1.1.8 1.2 1.1.2.3.2.6-.1.9-.2.4-.5.5-.9.5s-1-.4-1.9-1l-8.4-5.5c-.9-.6-1.4-1-1.6-1.4-.2-.3-.1-.7.1-1 .2-.3.5-.4.8-.4.4.1.9.3 1.6.8l1 .7 1.3-2-1.1-.8c-1.2-.8-2.2-1.2-3-1.1-.8.1-1.5.7-2.2 1.7-.7 1.1-.9 2-.6 2.9.3.8 1.2 1.7 2.8 2.8l7.6 5c1.6 1 2.8 1.5 3.7 1.5.9 0 1.7-.6 2.4-1.7s1-2 .8-2.7c-.2-.6-.9-1.4-2.2-2.3zm-10.6-10.3l14.8 10.7 1.4-2-14.8-10.6-1.4 1.9zm4.7-6.3l12.5 13.7 1.4-1.8-3.2-3.4 1.9-2.4 4 2.4 1.5-1.9-16-9.2-2.1 2.6zm2.6 0l8.4 5.2-1.6 2-6.8-7.2zm21.8 3.5c-.3-.3-.7-.4-1.1-.4-.4 0-.7.3-1.1.6l-.1.2-.6-.6c.8-.9 1.2-1.8 1.1-2.5-.1-.8-.7-1.6-1.8-2.6l-1.3-1.1-1.6 1.8 1.2 1.1c.6.5.9.9 1.1 1.3.1.3.1.6-.2.9-.3.3-.6.4-.9.3-.3-.1-.9-.5-1.7-1.2l-7.5-6.7c-.8-.7-1.3-1.2-1.4-1.6-.1-.3-.1-.7.2-1 .2-.3.5-.3.9-.2.3.1.8.4 1.4 1l.9.8 1.6-1.8-1-.9c-1.1-1-2-1.5-2.8-1.5-.8 0-1.6.5-2.4 1.4-.9 1-1.2 1.9-1 2.7.2.8 1 1.9 2.4 3.1l6.8 6c1.4 1.2 2.5 1.9 3.4 2 .7.1 1.4-.2 2-.8l1.3 1.2.1-.1s.1-.1.1-.2c.2-.2.3-.3.5-.3s.3 0 .4.1c.1.1.2.3.2.5s-.1.4-.3.6c-.1.1-.3.3-.5.4l-.6.4.4.7c.3-.2.6-.4.8-.6.3-.2.5-.4.7-.6.4-.5.7-.9.7-1.4.2-.3 0-.7-.3-1zm-13.2-19.4l.7-.8c-.1-.2-.2-.3-.2-.5s0-.3.1-.4c.1-.1.3-.2.8-.4.4-.2.7-.4.9-.6.3-.3.4-.7.3-1.1-.1-.4-.4-.9-.8-1.4l-.7.8c.1.2.2.4.2.5 0 .1 0 .3-.1.4-.1.1-.3.2-.8.4-.4.2-.7.4-.9.6-.3.3-.4.7-.3 1.1.1.5.3.9.8 1.4zm2.1.8l11.1 14.9 1.6-1.6-2.9-3.7 2.1-2.2 3.8 2.8 1.7-1.7-15.1-10.7-2.3 2.2zm2.5.2l7.8 6-1.8 1.8-6-7.8zm17.9-.7l-6.1-6.8c-1.2-1.4-2.3-2.2-3.2-2.3-.9-.2-1.8.2-2.8 1.1-1 .9-1.5 1.8-1.5 2.7.1.9.7 2 2 3.4l6.1 6.8c1.2 1.4 2.3 2.2 3.2 2.3.9.2 1.8-.2 2.8-1.1 1-.9 1.5-1.8 1.5-2.7-.1-.8-.7-2-2-3.4zm-.7 4.7c-.4.3-.7.4-1.1.3-.4-.1-.9-.6-1.6-1.3l-6.7-7.4c-.7-.8-1.1-1.3-1.2-1.7-.1-.4 0-.7.4-1 .4-.3.7-.4 1.1-.3.4.1.9.6 1.6 1.3l6.7 7.5c.7.8 1.1 1.3 1.2 1.7.1.3-.1.6-.4.9zm7.2-20.7c-1.2-1.7-2.3-2.6-3.2-2.7-.9-.2-2.1.3-3.6 1.4l-2 1.5 11 14.6 2-1.5c1.5-1.1 2.3-2.1 2.4-3 .1-.9-.5-2.2-1.7-3.8l-4.9-6.5zm4.3 10.4c0 .4-.4.8-1 1.2l-.4.3-8.7-11.6.4-.3c.6-.5 1.1-.7 1.5-.6.4.1.8.4 1.3 1.1l6.3 8.4c.4.6.7 1.2.6 1.5zm3.7-16.4c-1-1.6-2-2.5-2.8-2.8-.8-.3-1.8-.1-2.9.7-1.2.8-1.8 1.6-1.9 2.5-.1.9.4 2.1 1.5 3.7l5 7.6c1 1.6 2 2.5 2.8 2.8.8.3 1.8.1 2.9-.7 1.2-.8 1.8-1.6 1.8-2.5.1-.9-.4-2.1-1.5-3.7l-4.9-7.6zm3.6 12.1c-.4.3-.8.3-1.1.1-.3-.2-.8-.7-1.4-1.6l-5.5-8.3c-.6-.9-.9-1.5-.9-1.9 0-.4.1-.7.5-1 .4-.3.8-.3 1.1-.1.4.2.8.7 1.4 1.5l5.5 8.3c.6.8.9 1.5.9 1.9.1.5-.1.9-.5 1.1zm8.8-9.5c-.3-.5-.6-.9-1-1.3-.4-.3-.9-.7-1.7-1l-3.6-1.6c-1-.4-1.7-.9-2-1.5l-.5-.8c-.4-.7-.6-1.1-.6-1.4 0-.3.2-.6.5-.7.3-.2.6-.2.8-.1.2.1.5.5.8 1l.9 1.5 2-1.2-.8-1.4c-.7-1.1-1.3-1.8-2-2-.7-.2-1.5-.1-2.5.5s-1.6 1.3-1.8 2.2c-.2.9.1 1.9.7 3l.6 1.1c.2.4.5.7.9 1 .4.3.8.6 1.3.8l3.8 1.8h.1c1 .5 1.7 1 2 1.6l.5.9c.4.7.7 1.3.7 1.6 0 .3-.2.6-.5.8-.3.2-.6.2-.9.1-.3-.1-.6-.5-.9-1.1l-.9-1.6-2.1 1.2.9 1.6c.7 1.2 1.4 1.9 2.1 2.1.7.2 1.6 0 2.6-.6s1.6-1.4 1.8-2.3c.2-.9-.1-2-.8-3.2l-.4-1zm12.6-6.6l-2.2 1 .7 1.5c.3.7.5 1.2.5 1.6 0 .3-.2.6-.5.8-.4.2-.7.2-1-.1-.3-.2-.7-.8-1.1-1.8l-4.3-9c-.5-1-.7-1.6-.7-2 0-.4.2-.6.6-.8.3-.2.6-.1.9.1.3.2.6.7 1 1.5l.5 1.1 2.1-1-.6-1.2c-.6-1.3-1.3-2.2-2-2.4-.7-.3-1.6-.2-2.8.4-1.2.6-1.9 1.3-2 2.1-.2.9.2 2.1 1 3.8l3.9 8.2c.8 1.7 1.6 2.7 2.4 3.1.8.4 1.7.3 2.9-.2 1.2-.6 1.9-1.2 2.1-2 .2-.7 0-1.8-.7-3.1l-.7-1.6zm-3.1-12.8l7.2 16.8 2.2-.9-7.2-16.8-2.2.9zm16.1 7.5l-2.2.9.6 1.5c.3.7.4 1.3.4 1.6 0 .3-.2.6-.6.7-.4.2-.7.1-1-.1s-.6-.9-1-1.9l-3.6-9.4c-.4-1-.5-1.7-.5-2 0-.4.3-.6.7-.8.3-.1.6-.1.9.2.3.3.5.8.8 1.5l.4 1.2 2.2-.8-.5-1.3c-.5-1.4-1.1-2.3-1.8-2.6-.7-.4-1.6-.3-2.8.1-1.2.5-2 1.1-2.2 1.9-.2.8 0 2.1.6 3.9l3.2 8.5c.7 1.8 1.4 2.9 2.1 3.3.7.5 1.7.5 2.9 0s2-1.1 2.2-1.8c.3-.7.1-1.8-.4-3.2l-.4-1.4zm5.3 1.9l-5.1-15.6-2.2.7 5.7 17.4 5.4-1.8-.6-1.8-3.2 1.1zm.5-17.3l5 17.6 2.3-.7-5-17.6-2.3.7zm14.8 9.9c-.1-.6-.3-1.1-.6-1.5-.3-.4-.7-.9-1.3-1.5l-2.9-2.6c-.8-.7-1.3-1.4-1.5-2l-.2-.9c-.2-.7-.2-1.3-.1-1.6.1-.3.3-.5.7-.6.3-.1.6 0 .8.2.2.2.3.6.5 1.2l.4 1.7 2.3-.5-.4-1.6c-.3-1.2-.7-2.1-1.4-2.5-.6-.4-1.4-.5-2.5-.3-1.1.3-1.9.8-2.3 1.6-.4.8-.5 1.8-.2 3l.3 1.2c.1.4.3.8.5 1.2.2.4.6.8 1 1.2l3.1 2.8.1.1c.8.7 1.3 1.5 1.5 2.1l.2 1c.2.8.3 1.4.2 1.7-.1.3-.3.5-.7.6-.4.1-.6 0-.9-.2-.2-.2-.4-.6-.5-1.3l-.4-1.8-2.3.6.4 1.8c.3 1.3.8 2.2 1.4 2.6.6.4 1.5.5 2.7.2 1.2-.3 2-.8 2.4-1.6.4-.8.5-1.9.1-3.3l-.4-1zm6.1-12.7l-.4-1.9-6.7 1.2.4 1.9 2.2-.4 3 16.1 2.3-.4-3-16.1 2.2-.4zm3.4-2.5l-.5 18.5 2.2-.3v-4.7l3-.4 1.2 4.5 2.5-.2-5.2-17.8-3.2.4zm1.8 11.7v-9.9h.1l2.5 9.6-2.6.3zm14.2 0c0-.6-.2-1.1-.4-1.6s-.6-1-1.1-1.6l-2.5-3c-.7-.8-1.1-1.6-1.2-2.2l-.1-.9c-.1-.8 0-1.3.1-1.6.1-.3.4-.4.8-.5.3 0 .6.1.7.3.2.2.3.6.3 1.2l.1 1.8 2.4-.2-.1-1.6c-.1-1.3-.4-2.2-1-2.7-.5-.5-1.4-.7-2.4-.6-1.2.1-2 .5-2.6 1.2-.5.7-.8 1.7-.7 3l.1 1.3c0 .4.1.9.3 1.3.2.4.5.9.8 1.3l2.6 3.2.1.1c.7.9 1.1 1.6 1.1 2.3l.1 1.1c.1.8 0 1.4-.1 1.7-.1.3-.4.5-.8.5s-.6-.1-.8-.3c-.2-.2-.3-.7-.3-1.3l-.1-1.9-2.4.2.1 1.8c.1 1.4.4 2.3 1 2.8.5.5 1.4.7 2.6.6 1.2-.1 2.1-.5 2.6-1.3.5-.7.8-1.8.6-3.2l.2-1.2zm12.1.6c0 1-.1 1.7-.3 2-.2.3-.5.5-1 .5s-.8-.2-1-.5c-.2-.3-.3-1-.3-2.1l.1-14.2h-2.4l-.1 13.7c0 1.9.2 3.2.8 3.9.5.7 1.4 1.1 2.8 1.1s2.4-.3 2.9-1 .8-2 .8-3.9l.1-13.7h-2.4v14.2zm8.7-13.8l-3.2-.2-1.1 18.3 2.3.1.5-8.5h.5c.8 0 1.3.2 1.5.5.2.3.3.8.3 1.7l-.4 6.4 2.4.1.4-6.4c.1-1.1-.1-1.8-.5-2.3-.4-.5-1-.8-2-.9.9 0 1.6-.3 2-.7.4-.4.7-1.1.7-2l.2-2.9c.1-1.1-.2-1.9-.7-2.4-.5-.4-1.5-.7-2.9-.8zm1.1 4l-.1 2c-.1.8-.2 1.4-.5 1.6-.3.3-.8.4-1.5.3h-.5l.4-6.1h.5c.7 0 1.2.2 1.4.5.3.3.4.8.3 1.7zm9.4 5.7c.8 0 1.4-.2 1.8-.6.4-.4.7-1 .8-1.8l.3-2.9c.1-1.1-.1-1.9-.6-2.4s-1.5-.9-2.9-1l-3.2-.4-2.1 18.2 3.3.4c1.4.2 2.4.1 3.1-.3.6-.4 1-1.1 1.1-2.3l.4-3.8c.1-.8 0-1.5-.4-2-.2-.5-.7-.9-1.6-1.1zm-1.7-7.1l.5.1c.7.1 1.2.3 1.4.6.2.3.3.8.2 1.6l-.2 2c-.1.8-.3 1.3-.6 1.6-.3.2-.8.3-1.5.2l-.5-.1.7-6zm1.4 10.1l-.3 2.6c-.1.8-.3 1.4-.6 1.6-.3.3-.9.3-1.6.2l-.5-.1.8-6.8.5.1c.8.1 1.3.3 1.5.6.2.4.3 1 .2 1.8zm2.8 6.9l2.2.4 1.5-4.5 3 .5-.2 4.7 2.3.4.4-18.5-3.2-.6-6 17.6zm7.3-15.2l-.6 9.9-2.5-.4 3.1-9.5zm12.6.6l-3.6 16.2h-.1l1.2-16.8-3-.7-4.2 17.8 1.9.5 3.5-16.1h.1l-1.3 16.6 3.1.7 4.2-17.8-1.8-.4zm10.8 3.8c-.3-.8-1.1-1.4-2.4-1.8-1.3-.4-2.4-.4-3.1.2-.7.5-1.3 1.7-1.9 3.5l-2.6 8.7c-.5 1.8-.6 3.1-.3 3.9.3.8 1.1 1.4 2.4 1.8 1.3.4 2.4.3 3.1-.2.7-.5 1.3-1.7 1.9-3.5l2.6-8.7c.5-1.7.6-3 .3-3.9zm-2.5 2.8l-2.9 9.6c-.3 1-.6 1.6-.9 1.9-.3.3-.6.4-1.1.2-.5-.1-.7-.4-.8-.8-.1-.4 0-1.1.3-2.1l2.9-9.6c.3-1 .6-1.6.9-1.9.3-.3.6-.3 1.1-.2.5.1.7.4.8.8.1.5 0 1.2-.3 2.1zm9.7-1.4c-1.1-.4-2-.4-2.8 0-.8.4-1.4 1.2-1.8 2.4l-.4 1.2c-.2.4-.2.9-.2 1.3 0 .5.1 1 .2 1.5l1.1 4v.1c.3 1.1.3 1.9.1 2.6l-.4 1c-.3.8-.6 1.3-.8 1.5-.2.2-.6.3-1 .1-.4-.1-.6-.3-.6-.6-.1-.3 0-.7.2-1.4l.6-1.8-2.3-.8-.6 1.7c-.5 1.3-.6 2.3-.3 3 .3.7 1 1.2 2.1 1.6 1.1.4 2.1.4 2.9-.1.8-.4 1.4-1.3 1.9-2.6l.4-1.1c.2-.6.3-1.1.3-1.6s-.1-1.1-.3-1.9l-1-3.8c-.3-1.1-.3-1.9-.1-2.5l.3-.8c.3-.7.5-1.2.7-1.4.2-.2.5-.2.9-.1.3.1.5.3.6.6 0 .3 0 .7-.2 1.2l-.6 1.7 2.2.8.5-1.5c.4-1.2.5-2.2.2-2.8-.1-.6-.8-1.1-1.8-1.5zm15.1 12.1c.9-1.9 1.2-3.3.9-4.1-.3-.9-1.3-1.7-3-2.5l-2.3-1-7.7 16.6 2.3 1c1.7.8 3 1 3.8.7.8-.3 1.7-1.5 2.6-3.3l3.4-7.4zm-6.1 7.5c-.3.7-.7 1.2-1 1.3-.3.1-.9 0-1.6-.3l-.4-.2 6.1-13.2.4.2c.7.3 1.1.6 1.2 1 .1.3 0 .9-.3 1.6l-4.4 9.6zm14.8-6.5l.9-1.7-4.8-2.5-8.5 16.2 5 2.6.9-1.7-2.9-1.5 3.1-5.9 2.6 1.4.9-1.7-2.6-1.4 2.7-5.2 2.7 1.4zm8.3 16.1c.5-.7.6-1.4.5-1.9-.1-.6-.5-1.1-1.1-1.7.7.3 1.4.4 1.9.2s1-.6 1.5-1.3l1.6-2.5c.6-.9.8-1.8.5-2.4-.2-.7-.9-1.4-2.1-2.2l-2.7-1.7-9.8 15.4 2.8 1.8c1.2.8 2.2 1.1 2.9 1 .7-.1 1.4-.6 2-1.5l2-3.2zm1-10.7l.4.3c.6.4 1 .8 1 1.1.1.4-.1.9-.5 1.6l-1.1 1.7c-.4.7-.8 1.1-1.2 1.2-.4.1-.8-.1-1.5-.4l-.4-.3 3.3-5.2zm-4.6 11.9c-.5.7-.9 1.1-1.3 1.2-.4.1-.9-.1-1.6-.5l-.4-.3 3.7-5.8.4.3c.7.4 1.1.8 1.1 1.2.1.4-.1.9-.6 1.6l-1.3 2.3zm8.4.1l2.4 1.7 1.1-1.6-2.4-1.7 3.4-4.8 2.5 1.8 1.1-1.6-4.5-3.2-10.6 14.9 4.6 3.3 1.1-1.6-2.7-1.9 4-5.3zm12.4-2.9l-1.9-1.5-11.3 14.4 4.5 3.5 1.2-1.5-2.6-2.1 10.1-12.8zm8.8 8.4c.1-.9-.4-1.7-1.4-2.6-1.1-.9-2-1.3-2.9-1.1-.9.2-1.9 1-3.1 2.4l-6 6.9c-1.2 1.4-1.9 2.6-1.9 3.4-.1.9.4 1.8 1.4 2.6 1 .9 2 1.3 2.9 1.1.9-.2 1.9-1 3.2-2.4l6-6.9c1.1-1.4 1.8-2.6 1.8-3.4zm-2.3-.3c-.1.4-.5 1-1.1 1.7l-6.6 7.6c-.7.8-1.2 1.2-1.5 1.4-.4.1-.7.1-1.1-.3-.4-.3-.5-.7-.4-1 .1-.4.5-1 1.1-1.7l6.6-7.6c.7-.8 1.2-1.2 1.6-1.4.4-.1.7-.1 1.1.3.3.3.4.7.3 1zm13.3 9.9l-5.7 5.5-1.8-1.8 5.7-5.5-1.6-1.7-13.2 12.6 1.6 1.7 6.2-5.9 1.8 1.8-6.2 5.9 1.6 1.7 13.2-12.7-1.6-1.6zm4.9 12.4c1.4-1.2 2.2-2.3 2.4-3.1.2-.9-.2-1.8-1-2.8-.9-1.1-1.8-1.6-2.7-1.5-.9 0-2 .7-3.4 1.9l-6.9 5.9c-1.4 1.2-2.2 2.3-2.4 3.1-.2.9.2 1.8 1 2.8.9 1.1 1.8 1.6 2.7 1.5.9 0 2-.7 3.5-1.9l6.8-5.9zm-10.5 5.6c-.4.1-.7 0-1.1-.4-.3-.4-.4-.7-.3-1.1.1-.4.6-.9 1.4-1.6l7.6-6.5c.8-.7 1.4-1 1.7-1.1.4-.1.7.1 1 .4.3.4.4.7.2 1.1-.1.4-.6.9-1.4 1.5l-7.6 6.5c-.5.7-1.1 1.1-1.5 1.2zm12.2 4.8c.1-.6-.1-1.3-.6-2.1.6.7 1.3 1 1.8 1.1.6 0 1.2-.2 2-.8l2.3-1.8c.9-.7 1.3-1.4 1.3-2.1 0-.7-.4-1.7-1.3-2.8l-1.9-2.5-14.5 11.2 1.4 1.8 6.7-5.2.3.4c.5.6.7 1.1.6 1.4-.1.3-.4.8-1.1 1.3l-5.1 3.9 1.5 1.9 5.1-3.9c.9-.6 1.4-1.2 1.5-1.8zm3.6-8.1l.3.4c.4.6.6 1 .6 1.4-.1.4-.4.8-1.1 1.3l-1.6 1.2c-.7.5-1.2.7-1.6.7-.4 0-.8-.3-1.2-.9l-.3-.4 4.9-3.7zm6.2 5.1l-15 10.5 1.4 2 15-10.5-1.4-2zm4.4 10.7l1.9-1.2-3.3-5.1-1.6 1 2.1 3.2-14 4.2-2 1.3 3.5 5.4 1.6-1-2.3-3.5 14.1-4.3zm2.9 9.5c1.6-.9 2.6-1.8 2.9-2.6.3-.8.2-1.8-.5-3s-1.5-1.9-2.3-2c-.9-.1-2.1.3-3.7 1.2l-7.9 4.5c-1.6.9-2.6 1.8-2.9 2.6-.3.8-.2 1.8.5 3s1.5 1.9 2.3 2c.9.1 2.1-.3 3.8-1.2l7.8-4.5zm-11.4 3.5c-.4 0-.7-.2-1-.6-.2-.4-.3-.8 0-1.1.2-.3.8-.8 1.6-1.3l8.7-5c.9-.5 1.5-.8 1.9-.8.4 0 .7.2.9.6.2.4.2.8 0 1.1-.2.3-.8.8-1.6 1.3l-8.7 5c-.8.5-1.4.8-1.8.8zm19.3 2l-14.8 7.6v-.1l13.7-9.8-1.4-2.8-16.4 8.2.9 1.8 14.6-7.5.1.1-13.6 9.7 1.4 2.8 16.4-8.2-.9-1.8zm2.8 11l1.8-.8-2.7-6.2-1.8.8.9 2-15 6.5.9 2.2 15-6.5.9 2zm2.8 1.6l-17.1 6.5 2 5.3 1.8-.7-1.2-3.1 6.2-2.3 1 2.8 1.8-.7-1-2.8 5.5-2.1 1.1 2.9 1.8-.7-1.9-5.1z"/><path fill="#383838" d="M157.9 397.9c-.2-.6-.5-1.2-.9-1.8.6.1 1.2.1 1.7-.1 1.4-.3 2.7-1.3 3.7-2.9l3.1-4.9c1.3-2.1 1.6-4.1.8-5.9-.8-1.7-2.7-3.5-5.8-5.5l-6.6-4.2c-.2-.1-.4-.2-.6-.1-.2 0-.4.2-.5.4l-19.4 30.6c-.1.2-.2.4-.1.6 0 .2.2.4.4.5l7 4.4c3.1 2 5.5 2.9 7.4 2.9h.1c1.9 0 3.6-1.1 5-3.2l4-6.4c.9-1.4 1.2-2.9.7-4.4zm-7.6 1.1l-2.8 4.3c-1 1.5-1.7 1.9-2.1 1.9h-.2c-.5 0-1.4-.2-3.1-1.3l-.4-.2 6.4-10.1.4.2c2 1.3 2.5 2 2.6 2.4.2.7-.1 1.6-.8 2.8zm4-8.3h-.2c-.4 0-1.3-.2-2.8-1.2l-.3-.2 5.5-8.7.3.2c1.8 1.1 2.2 1.8 2.3 2.2.1.3.1 1-.8 2.5l-2.1 3.3c-.7 1.1-1.4 1.8-1.9 1.9zm34.4 1l-5.3-2.4c-.4-.2-.9 0-1.1.4l-6.2 13.4-4.3-2 6.2-13.4c.2-.4 0-.9-.4-1.1l-5.3-2.4c-.2-.1-.4-.1-.6 0-.2.1-.4.2-.5.4l-15.2 32.9c-.2.4 0 .9.4 1.1l5.3 2.4c.2.1.4.1.6 0 .2-.1.4-.2.5-.4l6.8-14.7 4.3 2-6.8 14.7c-.1.2-.1.4 0 .6.1.2.2.4.4.5l5.3 2.4c.1.1.2.1.3.1.3 0 .6-.2.7-.5l15.2-32.9c.1-.2.1-.4 0-.6.1-.3-.1-.4-.3-.5zm28.8 13.1l.9-3.7c.1-.2 0-.4-.1-.6-.1-.2-.3-.3-.5-.4l-13.1-3.2c-.2-.1-.4 0-.6.1-.2.1-.3.3-.4.5l-8.5 35.2c-.1.2 0 .4.1.6.1.2.3.3.5.4l13.6 3.3h.2c.4 0 .7-.2.8-.6l.9-3.7c.1-.4-.2-.9-.6-1l-7.1-1.7 2.7-11.2 6.3 1.5c.4.1.9-.2 1-.6l.9-3.7c.1-.2 0-.4-.1-.6-.1-.2-.3-.3-.5-.4l-6.3-1.5 2.3-9.7 6.7 1.6c.3.1.8-.2.9-.6zm30.4-1.3l-8.7-.8c-.4 0-.8.2-.9.6l-6.1 25.7-1.3-26.4c0-.4-.3-.7-.7-.8l-8.9-.8c-.2 0-.4 0-.6.2-.2.1-.3.3-.3.6l-3.3 36.1c0 .2 0 .4.2.6.1.2.3.3.6.3l4.7.4c.4 0 .8-.3.9-.7l2.2-24.7 1.3 25.2c0 .4.3.7.7.8l6.5.6c.4 0 .8-.2.9-.6l6-24.9-2.3 25.2c0 .2 0 .4.2.6.1.2.3.3.6.3l4.9.4h.1c.4 0 .8-.3.8-.7l3.3-36.1c0-.6-.3-1-.8-1.1zm37.4 22.9c-.1-.4-.5-.8-.9-.7l-5.9.8c-.4.1-.8.5-.7.9l.4 3.2c.2 1.8.1 2.6-.1 2.9-.1.3-.4.6-1.2.7h-.5c-.7 0-.9-.2-1.1-.4-.2-.2-.6-1-1-3.6l-2.6-19.7c-.3-2.5-.1-3.4 0-3.7.1-.2.3-.6 1.5-.8.6-.1 1 0 1.3.4.3.3.6 1.1.9 2.9l.3 2.4c0 .2.1.4.3.5.2.1.4.2.6.2l5.8-.8c.2 0 .4-.1.5-.3.1-.2.2-.4.2-.6l-.4-2.7c-.4-3.2-1.4-5.3-3-6.4-1.1-.8-2.6-1.1-4.6-1.1-.8 0-1.7.1-2.7.2-3.5.5-5.8 1.5-7 3.3-1.2 1.7-1.6 4.5-1 8.4l2.4 17.9c.5 3.9 1.6 6.5 3.2 7.9 1.2 1 2.9 1.5 5.1 1.5.7 0 1.5-.1 2.4-.2 3.4-.5 5.7-1.4 7-2.9 1.3-1.5 1.7-3.8 1.3-7l-.5-3.2zm6.4-27.9c0-.2-.2-.4-.4-.5-.2-.1-.4-.1-.6-.1l-5.8 1.4c-.4.1-.7.5-.6 1l8.4 35.3c.1.2.2.4.4.5.1.1.3.1.4.1h.2l5.8-1.4c.4-.1.7-.5.6-1l-8.4-35.3zm29.4 17.5c-.1-.2-.2-.4-.4-.5-.2-.1-.4-.1-.6 0l-5.6 1.9c-.4.1-.7.6-.5 1l1.1 3.1c.6 1.7.5 2.5.5 2.8-.1.3-.2.7-1.1.9-.3.1-.6.2-.9.2-.3 0-.5-.1-.7-.2-.2-.2-.8-.8-1.6-3.4l-6.4-18.8c-.8-2.4-.8-3.3-.7-3.6 0-.2.2-.7 1.3-1.1.6-.2 1-.1 1.3.2.3.3.8 1 1.4 2.7l.8 2.3c.1.4.6.7 1 .5l5.6-1.9c.2-.1.4-.2.5-.4.1-.2.1-.4 0-.6l-.9-2.6c-1-3-2.4-4.9-4.2-5.7-.7-.3-1.6-.5-2.5-.5-1.4 0-3 .3-4.8 1-3.3 1.1-5.4 2.6-6.2 4.6-.9 1.9-.7 4.7.6 8.4l5.8 17.1c1.3 3.8 2.8 6.1 4.7 7.1.9.5 2 .7 3.2.7 1.3 0 2.8-.3 4.5-.9 3.3-1.1 5.3-2.5 6.3-4.2 1-1.7.9-4-.1-7.1l-1.4-3zm21.8-2.8c-.1-.2-.3-.3-.5-.4-.2-.1-.4-.1-.6 0l-6.8 3.2-13.5-28.6c-.2-.4-.7-.6-1.1-.4l-5.3 2.5c-.4.2-.6.7-.4 1.1l15.5 32.8c.1.3.4.5.7.5.1 0 .2 0 .3-.1l12.8-6c.4-.2.6-.7.4-1.1l-1.5-3.5zm18.2-17.4l-9.6-15.2c-2.1-3.3-4.1-5.2-6.2-5.7-.4-.1-.9-.2-1.4-.2-1.8 0-3.8.7-6.2 2.2-3.1 2-4.9 4-5.4 6.1-.5 2.1.4 4.8 2.5 8.1l9.6 15.2c2.1 3.3 4.2 5.2 6.3 5.7.5.1.9.2 1.4.2 1.8 0 3.9-.7 6.2-2.2 3.1-2 4.9-4 5.3-6.1.5-2-.4-4.7-2.5-8.1zm-5.6 9.7c-.5.3-1 .5-1.4.5-.2 0-.3 0-.5-.1-.3-.1-1.1-.7-2.4-2.8l-10.6-16.8c-1.3-2.1-1.5-3-1.5-3.3 0-.2 0-.8 1.1-1.5.5-.3 1-.5 1.4-.5.2 0 .4 0 .5.1.3.2 1.1.7 2.4 2.7l10.6 16.8c1.3 2 1.5 3 1.5 3.3.1.3.1.9-1.1 1.6zM131 217.9h.4c1.4 0 2.6-1.1 2.8-2.5v-.1c.4-1.7-.5-3.2-2-3.6-.2 0-.4-.1-.5-.1-1.3 0-2.5 1.1-2.9 2.6-.1 1 .1 2 .6 2.8.4.5 1 .8 1.6.9zm236.7-5.7c-.2 0-.4 0-.5.1-1.5.4-2.4 1.9-2 3.6v.1c.2 1.4 1.4 2.5 2.8 2.5h.4c.6-.1 1.1-.4 1.5-1 .5-.7.8-1.7.6-2.8-.3-1.4-1.5-2.5-2.8-2.5zm-183.7 124.1l-.2-.1c-.6-.4-1.2-.6-1.9-.6-.9 0-1.7.4-2.2 1.1-.4.5-.5 1.1-.4 1.8.1.9.7 1.7 1.4 2.3.6.4 1.3.6 2 .6 1 0 1.8-.4 2.3-1.1.9-1.4.4-3.1-1-4zm-52.4-71.4v2-2c.2 0 .4 0 .5-.1 1.5-.4 2.4-1.9 2-3.6v-.1c-.2-1.4-1.4-2.5-2.8-2.5h-.4c-.6.1-1.1.4-1.5 1-.5.7-.8 1.7-.6 2.8.2 1.4 1.4 2.5 2.8 2.5zm141.2-141.7h.1c.2.1.5.1.7.1 1.4 0 2.6-.8 2.9-2.1.2-.6 0-1.3-.3-1.9-.5-.8-1.3-1.3-2.2-1.5h-.6c-1.6 0-2.9.9-3.1 2.2-.2 1.5.9 2.9 2.5 3.2zm75 50.3c.5.9 1.5 1.4 2.5 1.4.5 0 1-.1 1.4-.4.5-.3.9-.8 1.1-1.5.2-.9.1-1.9-.5-2.8-.7-.9-1.7-1.5-2.7-1.5-.5 0-1 .2-1.4.4-1.2.9-1.4 2.7-.5 4.1l.1.3zm20.5 85.8h-.4c-1.4 0-2.6 1.1-2.8 2.5v.1c-.4 1.7.5 3.2 2 3.6.2 0 .4.1.5.1 1.3 0 2.5-1.1 2.9-2.6.1-1-.1-2-.6-2.8-.5-.5-1-.8-1.6-.9zm-53.1-118.5l.1.1c.6.4 1.2.6 1.9.6.9 0 1.7-.4 2.2-1.1.4-.5.5-1.1.4-1.8-.1-.9-.7-1.7-1.4-2.3-.6-.4-1.3-.6-2-.6-1 0-1.8.4-2.3 1.1-.7 1.4-.3 3.2 1.1 4zm-88.8 213.2h-.1c-.2-.1-.5-.1-.7-.1-1.4 0-2.6.8-2.9 2.1-.2.6 0 1.3.3 1.9.5.8 1.3 1.3 2.2 1.5h.6c1.6 0 2.9-.9 3.1-2.2.2-1.5-.9-3-2.5-3.2zm46.6 0c-.2 0-.5 0-.7.1h-.1c-1.6.2-2.7 1.7-2.5 3.2.2 1.3 1.5 2.2 3.1 2.2h.6c.9-.2 1.7-.7 2.2-1.5.4-.6.5-1.3.3-1.9-.3-1.2-1.5-2.1-2.9-2.1zm78.3-50.9c-.4-.2-.9-.4-1.4-.4-1 0-2 .5-2.5 1.4l-.1.1c-1 1.4-.7 3.1.5 4.1.4.3.9.5 1.4.5 1 0 2-.6 2.7-1.5.5-.9.7-1.9.5-2.8-.2-.6-.6-1.1-1.1-1.4zm-203.4-129.1c.4.2.9.4 1.4.4 1 0 2-.5 2.5-1.4l.1-.1c1-1.4.8-3.2-.5-4.1-.4-.3-.9-.5-1.4-.5-1 0-2 .6-2.7 1.5-.5.9-.7 1.9-.5 2.8.2.6.6 1.1 1.1 1.4zm3.6 129.6c-.5-.9-1.5-1.4-2.5-1.4-.5 0-1 .1-1.4.4-.5.3-.9.8-1.1 1.5-.2.9-.1 1.9.5 2.8.7.9 1.7 1.5 2.7 1.5v2-2c.5 0 1-.2 1.4-.4 1.2-.9 1.4-2.7.5-4.1l-.1-.3zm165.2 32.4c-.7 0-1.3.2-1.8.6l-.1.1c-1.4.8-1.8 2.6-1.1 3.9.4.7 1.3 1.2 2.3 1.2.7 0 1.4-.2 2-.6.8-.6 1.3-1.4 1.5-2.3.1-.7 0-1.3-.4-1.8-.7-.7-1.6-1.1-2.4-1.1zm-90.5-212.9v2-2c.2 0 .5 0 .7-.1h.1c1.6-.2 2.7-1.7 2.5-3.2-.2-1.3-1.5-2.2-3.1-2.2h-.6c-.9.2-1.7.7-2.2 1.5-.4.6-.5 1.3-.4 1.9.5 1.3 1.6 2.1 3 2.1zm-43.6 18c.7 0 1.3-.2 1.8-.6l.2-.1c1.4-.8 1.8-2.6 1.1-3.9-.4-.7-1.3-1.2-2.3-1.2-.7 0-1.4.2-2 .6-.8.6-1.3 1.4-1.5 2.3-.1.7 0 1.3.4 1.8.6.7 1.4 1.1 2.3 1.1zm-51.2 146c-.7-1.9-1.6-3.6-2.6-5.2-1.3-.2-2.6-.5-3.8-1-4 2-7.2 3.6-7.8 4.2-.5.6-.8 1.4-.9 2.2-.1.9 0 1.8.2 2.7.3 1.8.9 3.2.9 3.2s.1.4.4.9c.3.5.7 1.3 1.2 2 1 1.5 2.5 2.9 4 3 .8 0 3.9-1 7.9-2.3.6-1.5 1.4-2.9 2.3-4.2-.3-1.5-.9-3.3-1.8-5.5zm69 69.4c-2.2-.9-4-1.5-5.6-1.9-1 .8-2.1 1.4-3.4 2-1.4 4.3-2.6 7.7-2.5 8.5 0 1.6 1.5 3 3 4 .7.5 1.5.9 2 1.2.3.1.5.3.7.3.2.1.3.1.3.1s1.5.6 3.2.9c.9.2 1.8.3 2.7.2.9-.1 1.7-.4 2.2-.9.6-.5 2.1-3.4 3.9-7.2-.7-1.5-1.1-3-1.3-4.6-1.5-1-3.3-1.9-5.2-2.6zm-44.2-24.8l-.2-.2c-1.5-1.7-3.3-3.1-5.3-4.3l-1-.6c-2.4 2.8-4.3 5-4.5 5.7-.3.7-.2 1.6 0 2.4.3.8.7 1.7 1.2 2.4 1 1.5 2.1 2.6 2.1 2.6l.2.2.5.5c.5.4 1.1.9 1.9 1.4 1.5 1 3.4 1.8 4.8 1.2.7-.3 2.8-2 5.5-4.3-.3-.6-.6-1.2-.9-1.7-1.2-2-2.6-3.8-4.3-5.3zm93.3 38.7h-1.5c-2.1 0-4.4.4-6.7 1 .3 3.7.5 6.6.8 7.3.6 1.4 2.6 2.1 4.3 2.5.9.2 1.7.3 2.3.4h1s1.6 0 3.3-.4c.9-.2 1.8-.5 2.6-.9s1.4-1 1.7-1.7c.3-.7.5-3.4.8-6.9-2.6-.9-5.1-1.3-7.6-1.3h-1zm118.3-180.3c.7 1.9 1.6 3.6 2.6 5.2 1.3.2 2.6.5 3.8 1 4-2 7.2-3.6 7.8-4.2.5-.6.8-1.4.9-2.2.1-.9 0-1.8-.2-2.7-.3-1.8-.9-3.2-.9-3.2s-.1-.4-.4-.9c-.3-.5-.7-1.3-1.2-2-1-1.5-2.5-2.9-4-3-.8 0-3.9 1-7.9 2.3-.6 1.5-1.4 2.9-2.3 4.2.3 1.5.9 3.3 1.8 5.5zm-64 164.8c-1.7.4-3.5 1-5.6 1.9-1.9.7-3.6 1.6-5.2 2.6-.2 1.3-.5 2.6-1 3.8 2 4 3.6 7.2 4.2 7.8.6.5 1.4.8 2.2.9.9.1 1.8 0 2.7-.2 1.8-.3 3.2-.9 3.2-.9s.4-.1.9-.4c.5-.3 1.3-.7 2-1.2 1.5-1 2.9-2.5 3-4 0-.8-1-3.9-2.3-7.9-1.5-.6-2.9-1.4-4.1-2.4zm88.9-116.4s0-1.6-.4-3.3c-.2-.9-.5-1.8-.9-2.6s-1-1.4-1.7-1.7c-.7-.3-3.4-.5-6.9-.8-1 3-1.5 5.9-1.3 8.6v.4c-.1 2.5.2 5.1 1 7.8 3.7-.3 6.6-.5 7.3-.8 1.4-.6 2.1-2.6 2.5-4.3.2-.9.3-1.7.4-2.3v-1zm-274.9-.1v-.4c.1-2.5-.2-5.1-1-7.8-3.7.3-6.6.5-7.3.8-1.4.6-2.1 2.5-2.5 4.3-.2.9-.3 1.7-.4 2.3v1s0 1.6.4 3.3c.2.9.5 1.8.9 2.6s1 1.4 1.7 1.7c.7.3 3.4.5 6.9.8.9-3 1.4-5.9 1.3-8.6zm232 88.4l-1.8.9c-2 1.2-3.7 2.6-5.3 4.2l-.2.2c-1.7 1.5-3.1 3.3-4.3 5.3l-.6 1c2.8 2.4 5 4.3 5.7 4.5.7.3 1.6.2 2.4 0 .8-.3 1.7-.7 2.4-1.2 1.5-1 2.6-2.1 2.6-2.1l.2-.2.5-.5c.4-.5.9-1.1 1.4-1.9 1-1.5 1.8-3.4 1.2-4.8-.1-.6-1.9-2.7-4.2-5.4zm32.2-41.6c-.5-.6-3.4-2.1-7.1-3.9-1.5.7-3.1 1.1-4.7 1.3-1 1.6-1.9 3.3-2.6 5.2-.9 2.1-1.5 3.9-1.9 5.6.8 1 1.4 2.1 2 3.3 4.3 1.4 7.7 2.6 8.5 2.5 1.6 0 3-1.5 4-3 .5-.7.9-1.5 1.2-2 .1-.3.3-.5.3-.7.1-.2.1-.3.1-.3s.6-1.5.9-3.2c.2-.9.3-1.8.2-2.7-.1-.8-.4-1.6-.9-2.1zm-132.2-178.5h1.5c2.1 0 4.4-.4 6.7-1-.3-3.7-.5-6.6-.8-7.3-.6-1.4-2.5-2.1-4.3-2.5-.9-.2-1.7-.3-2.3-.4h-1s-1.6 0-3.3.4c-.9.2-1.8.5-2.6.9s-1.4 1-1.7 1.7c-.3.7-.5 3.4-.8 6.9 2.9 1 5.8 1.5 8.6 1.3zm95.3 180.4c1.9-.6 3.9-.9 5.9-.9h.6c1.1-1.3 1.9-2.7 2.5-4 .6-1.6.9-3.2 1.1-4.7-1.5-1.4-2.8-3.2-3.9-5.1-2.5-4.3-3.2-9-2.2-13.7.6-3.8 2.4-7.2 5.4-10.1l.1-.1c2.4-2.2 3.8-5.6 4.1-9.6-.3-4-1.7-7.4-4.1-9.6l-.1-.1c-3-3-4.8-6.4-5.4-10.2-1-4.7-.2-9.4 2.3-13.7 1.1-2 2.5-3.7 4-5.1-.2-1.5-.6-3.1-1.1-4.7-.6-1.4-1.4-2.7-2.5-4.1h-.5c-2 0-4-.3-6-.9-5-1.4-8.9-4.2-11.3-8.2-2.2-3.2-3.4-6.9-3.3-10.9v-.2c.1-1.6-.2-3.2-.9-5-.7-1.7-1.7-3.3-2.9-4.7-1.4-1.2-3-2.2-4.6-2.9-1.6-.7-3-1-4.3-1h-1c-4 0-7.6-1.1-10.8-3.4-3.9-2.4-6.7-6.3-8.1-11.3-.7-2.1-.9-4.3-.9-6.5-1.3-1.1-2.7-1.9-4-2.5-1.6-.6-3.2-.9-4.7-1.1-1.4 1.5-3.2 2.8-5.1 3.9-3 1.8-6.3 2.7-9.7 2.7-1.3 0-2.7-.1-4-.4-3.8-.6-7.2-2.4-10.1-5.4l-.1-.1c-2.2-2.4-5.6-3.8-9.6-4.1-4 .3-7.4 1.7-9.6 4.1l-.1.1c-3 3-6.4 4.8-10.2 5.4-1.3.3-2.6.4-3.9.4-3.4 0-6.7-.9-9.8-2.7-2-1.1-3.7-2.5-5.1-4-1.5.2-3.1.6-4.7 1.1-1.4.6-2.7 1.4-4 2.4.1 2.2-.2 4.4-.9 6.5-1.4 5-4.2 8.9-8.1 11.3-3.2 2.2-6.7 3.3-10.6 3.3h-1.2c-1.4 0-2.8.3-4.3 1-1.7.7-3.3 1.7-4.7 2.9-1.2 1.4-2.2 3-2.9 4.6-.8 1.8-1.1 3.4-1 4.9v.2c0 4-1.1 7.7-3.4 11-2.4 3.9-6.3 6.7-11.3 8.1-1.9.6-3.9.9-5.9.9h-.6c-1.1 1.3-1.9 2.7-2.5 4-.6 1.6-.9 3.2-1.1 4.7 1.5 1.4 2.8 3.2 3.9 5.1 2.5 4.3 3.2 9 2.2 13.7-.6 3.8-2.4 7.2-5.4 10.1l-.1.1c-2.4 2.2-3.8 5.6-4.1 9.6.3 4 1.7 7.4 4.1 9.6l.1.1c3 3 4.8 6.4 5.4 10.2 1 4.7.2 9.4-2.3 13.7-1.1 2-2.5 3.7-4 5.1.2 1.5.6 3.1 1.1 4.7.6 1.4 1.4 2.7 2.5 4.1h.5c2 0 4 .3 6 .9 5 1.4 8.9 4.2 11.3 8.2 2.2 3.2 3.4 6.9 3.3 10.9v.2c-.1 1.6.2 3.2.9 5 .7 1.7 1.7 3.3 2.9 4.7 1.4 1.2 3 2.2 4.6 2.9 1.8.8 3.4 1.1 4.9 1h.4c4 0 7.6 1.1 10.8 3.4 3.9 2.4 6.7 6.3 8.1 11.3.7 2.1.9 4.3.9 6.5 1.3 1.1 2.7 1.9 4 2.5 1.6.6 3.2.9 4.7 1.1 1.4-1.5 3.2-2.8 5.1-3.9 3-1.8 6.3-2.7 9.7-2.7 1.3 0 2.7.1 4 .4 3.8.6 7.2 2.4 10.1 5.4l.1.1c2.2 2.4 5.6 3.8 9.6 4.1 4-.3 7.4-1.7 9.6-4.1l.1-.1c3-3 6.4-4.8 10.2-5.4 1.3-.3 2.6-.4 3.9-.4 3.4 0 6.7.9 9.8 2.7 2 1.1 3.7 2.5 5.1 4 1.5-.2 3.1-.6 4.7-1.1 1.4-.6 2.7-1.4 4-2.5-.1-2.2.2-4.4.9-6.5 1.4-5 4.2-8.9 8.2-11.3 3.2-2.2 6.7-3.3 10.6-3.3h1.2c1.4 0 2.8-.3 4.3-1 1.7-.7 3.3-1.7 4.7-2.9 1.2-1.4 2.2-3 2.9-4.6.7-1.8 1.1-3.4 1-4.9v-.2c0-4 1.1-7.7 3.4-11 2.3-3.8 6.2-6.6 11.2-8zm-25-108.3c.3-.3.7-.5 1-.5.3 0 .6.1.9.4l.1.1c5.8 7 10.6 14.8 14.1 23.3 4.2 9.9 6.6 20.3 7.2 31.1 0 .4-.1.7-.4 1-.2.2-.6.4-.9.4h-42.2c-.3 0-.6-.1-.9-.4-.3-.3-.4-.6-.4-1 .6-10.8 3-21.2 7.2-31.1 3.7-8.5 8.5-16.3 14.3-23.3zm-66.4-32.8c0-.3.1-.6.4-.9.2-.2.6-.4.9-.4h.1c10.7.6 21.2 3 31.1 7.2 8.4 3.6 16.2 8.3 23.3 14.1l.1.1c.5.5.5 1.3 0 1.8l-.1.1c-7 5.8-14.8 10.6-23.3 14.1-9.9 4.2-20.3 6.6-31.1 7.2h-.1c-.3 0-.6-.1-.9-.4-.3-.3-.4-.6-.4-.9v-42zm0 59v-6.1c0-.3.1-.6.4-.8.2-.2.5-.3.8-.4 18.3-.9 35.4-6.7 49.9-16 .2-.1.4-.2.7-.2.3 0 .6.1.9.4.4.4.5 1.1.2 1.6-9.3 14.5-15.1 31.6-16 49.9 0 .3-.1.6-.4.8-.2.2-.5.3-.8.4h-6.1c-.1 0-.2-.1-.2-.1-.1-.1-.1-.2-.1-.3v-2.6c0-.1 0-.2-.1-.3-.1-.1-.2-.1-.3-.1h-2.7c-.1 0-.2 0-.3-.1-.1-.1-.1-.2-.1-.3v-2.6c0-.1 0-.2-.1-.3-.1-.1-.2-.1-.3-.1h-2.6c-.1 0-.2 0-.3-.1-.1-.1-.1-.2-.1-.3v-9.5c0-1.4-.6-2.6-1.4-3.5-.9-.9-2.1-1.4-3.5-1.4h-9.5l-.3-.1c-.1-.1-.1-.2-.1-.3v-2.6c0-.1 0-.2-.1-.3-.1-.1-.2-.1-.3-.1h-2.7l-.3-.1c-.1-.1-.1-.2-.1-.3v-2.7c0-.1 0-.2-.1-.3-.1-.1-.2-.1-.3-.1h-2.6c-.1 0-.2 0-.3-.1-.7-.8-.8-.8-.8-1zm52.7 90.3c-.2.2-.6.4-.9.4-.2 0-.5-.1-.7-.2-14.5-9.3-31.6-15.1-49.9-16-.3 0-.6-.1-.8-.4-.2-.2-.3-.5-.4-.8v-6.199999999999999c0-.1.1-.2.1-.2.1-.1.2-.1.3-.1h2.6c.1 0 .2 0 .3-.1.1-.1.1-.2.1-.3v-2.7c0-.1 0-.2.1-.3.1-.1.2-.1.3-.1h2.6c.1 0 .2 0 .3-.1.1-.1.1-.2.1-.3v-2.6c0-.1 0-.2.1-.3.1-.1.2-.1.3-.1h9.5c1.4 0 2.6-.6 3.5-1.4.9-.9 1.4-2.1 1.4-3.5v-9.5l.1-.3c.1-.1.2-.1.3-.1h2.6c.1 0 .2 0 .3-.1.1-.1.1-.2.1-.3v-2.6l.1-.3c.1-.1.2-.1.3-.1h2.7c.1 0 .2 0 .3-.1.1-.1.1-.2.1-.3v-2.6c0-.1 0-.2.1-.3.1-.1.2-.1.2-.1h6.1c.3 0 .6.1.8.4.2.2.3.5.4.8.9 18.3 6.7 35.4 16 49.9 1-.2 1 .5.6.9zm-116.7-129.1l.1-.1c7-5.8 14.8-10.6 23.3-14.1 9.9-4.2 20.3-6.6 31.1-7.2h.1c.3 0 .6.1.9.4.2.2.4.6.4.9v42.1c0 .3-.1.7-.4.9-.2.2-.6.4-.9.4h-.1c-10.8-.6-21.2-3-31.1-7.2-8.4-3.6-16.2-8.3-23.3-14.1l-.1-.1c-.5-.6-.5-1.4 0-1.9zm51.9 42.8h-2.7c-.1 0-.2 0-.3.1-.1.1-.1.2-.1.3v2.6c0 .1 0 .2-.1.3-.1.1-.2.1-.3.1h-9.5c-1.4 0-2.6.6-3.5 1.4-.9.9-1.4 2.1-1.4 3.5v9.5l-.1.3c-.1.1-.2.1-.3.1h-2.6c-.1 0-.2 0-.3.1-.1.1-.1.2-.1.3v2.6l-.1.3c-.1.1-.2.1-.3.1h-2.7c-.1 0-.2 0-.3.1-.1.1-.1.2-.1.3v2.6c0 .1 0 .2-.1.3-.1.1-.2.1-.2.1h-6.5c-.3 0-.6-.1-.8-.4-.2-.2-.3-.5-.4-.8-.9-18.3-6.7-35.4-16-49.9-.3-.5-.3-1.1.2-1.6.2-.2.6-.4.9-.4.2 0 .5.1.7.2 14.5 9.3 31.6 15.1 49.9 16 .3 0 .6.1.8.4.2.2.3.5.4.8v6.199999999999999c0 .1-.1.2-.1.2-.1.1-.2.1-.3.1h-2.6c-.1 0-.2 0-.3.1-.1.1-.1.2-.1.3v2.7c0 .1 0 .2-.1.3-.4.7-.5.8-.6.8zm-85.8 24.1c.6-10.7 3-21.2 7.2-31.1 3.6-8.4 8.3-16.2 14.1-23.3l.1-.1c.2-.2.6-.4.9-.4.3 0 .6.1.9.4l.1.1c5.8 7 10.6 14.8 14.1 23.3 4.2 9.9 6.6 20.3 7.2 31.1 0 .4-.1.7-.4 1-.2.2-.6.4-.9.4h-42.2c-.3 0-.6-.1-.9-.4-.1-.3-.2-.7-.2-1zm23.3 65.3c-.3.3-.7.5-1 .5-.3 0-.6-.1-.9-.4l-.1-.1c-5.8-7-10.6-14.8-14.1-23.3-4.2-9.9-6.6-20.3-7.2-31.1 0-.4.1-.7.4-1 .2-.2.6-.4.9-.4h42.2c.3 0 .6.1.9.4.3.3.4.6.4 1-.6 10.8-3 21.2-7.2 31.1-3.7 8.5-8.4 16.3-14.3 23.3zm66.4 32.7c0 .3-.1.6-.4.9-.2.2-.6.4-.9.4h-.1c-10.7-.6-21.2-3-31.1-7.2-8.4-3.6-16.2-8.3-23.3-14.1l-.1-.1c-.5-.5-.5-1.3 0-1.8l.1-.1c7-5.8 14.8-10.6 23.3-14.1 9.9-4.2 20.3-6.6 31.1-7.2h.1c.3 0 .6.1.9.4.3.3.4.6.4.9v42zm0-58.9v6.1c0 .3-.1.6-.4.8-.2.2-.5.3-.8.4-18.3.9-35.4 6.7-49.9 16-.2.1-.4.2-.7.2-.3 0-.6-.1-.9-.4-.4-.4-.5-1.1-.2-1.6 9.3-14.5 15.1-31.6 16-49.9 0-.3.1-.6.4-.8.2-.2.5-.3.8-.4h6.1c.1 0 .2.1.2.1.1.1.1.2.1.3v2.6c0 .1 0 .2.1.3.1.1.2.1.3.1h2.7c.1 0 .2 0 .3.1.1.1.1.2.1.3v2.6c0 .1 0 .2.1.3.1.1.2.1.3.1h2.6c.1 0 .2 0 .3.1.1.1.1.2.1.3v9.5c0 1.4.6 2.6 1.4 3.5.9.9 2.1 1.4 3.5 1.4h9.5l.3.1c.1.1.1.2.1.3v2.6c0 .1 0 .2.1.3.1.1.2.1.3.1h2.6l.3.1c.1.1.1.2.1.3v2.7c0 .1 0 .2.1.3.1.1.2.1.3.1h2.7c.1 0 .2 0 .3.1.8.7.8.8.8 1zm2.8-17.1l-3-.7c-.7-.2-1.9-.2-2.6-.1l-1.4.2c-.7.1-1.5-.4-1.7-1.1-.2-.7-.9-1.4-1.6-1.5s-1.4-.9-1.6-1.6c-.2-.7-.9-1.4-1.5-1.6-.7-.2-1.2-1-1.1-1.7l.2-1.4c.1-.7 0-1.9-.1-2.6l-.7-3c-.2-.7-.2-1.9 0-2.6l.7-3c.2-.7.2-1.9.1-2.6l-.2-1.4c-.1-.7.4-1.5 1.1-1.7.7-.2 1.4-.9 1.5-1.6.2-.7.9-1.4 1.6-1.6.7-.2 1.4-.9 1.6-1.5.2-.7 1-1.2 1.7-1.1l1.4.2c.7.1 1.9 0 2.6-.1l3-.7c.7-.2 1.9-.2 2.6 0l3 .7c.7.2 1.9.2 2.6.1l1.4-.2c.7-.1 1.5.4 1.7 1.1.2.7.9 1.4 1.6 1.5.7.2 1.4.9 1.6 1.6.2.7.9 1.4 1.5 1.6.7.2 1.2.9 1.1 1.7l-.2 1.4c-.1.7 0 1.9.1 2.6l.7 3c.2.7.2 1.9 0 2.6l-.7 3c-.2.7-.2 1.9-.1 2.6l.2 1.4c.1.7-.4 1.5-1.1 1.7-.7.2-1.4.9-1.5 1.6-.2.7-.9 1.4-1.6 1.6-.7.2-1.4.9-1.6 1.5-.2.7-1 1.2-1.7 1.1l-1.4-.2c-.7-.1-1.9 0-2.6.1l-3 .7c-.7.1-1.9.1-2.6 0zm61.2 55.8l-.1.1c-7 5.8-14.8 10.6-23.3 14.1-9.9 4.2-20.3 6.6-31.1 7.2h-.1c-.3 0-.6-.1-.9-.4-.2-.2-.4-.6-.4-.9v-42c0-.3.1-.7.4-.9.2-.2.6-.4.9-.4h.1c10.7.6 21.2 3 31.1 7.2 8.4 3.6 16.2 8.3 23.3 14.1l.1.1c.5.5.5 1.3 0 1.8zm12.6-12.5c-.3.3-.7.5-1 .5-.3 0-.6-.1-.9-.4l-.1-.1c-5.8-7-10.6-14.8-14.1-23.3-4.2-9.9-6.6-20.3-7.2-31.1 0-.4.1-.7.4-1 .2-.2.6-.4.9-.4h42.2c.3 0 .6.1.9.4.3.3.4.7.4 1-.6 10.7-3 21.2-7.2 31.1-3.8 8.5-8.5 16.3-14.3 23.3zm-172.6-148c.6-.3 1.2-.6 1.7-.9 2-1.2 3.7-2.6 5.3-4.3l.2-.2c1.7-1.5 3.1-3.3 4.3-5.3l.6-1c-2.8-2.4-5-4.3-5.7-4.5-.7-.3-1.6-.2-2.4 0-.8.3-1.7.7-2.4 1.2-1.5 1-2.6 2.1-2.6 2.1l-.2.2-.5.5c-.4.5-.9 1.1-1.4 1.9-1 1.5-1.8 3.4-1.2 4.8.2.7 1.9 2.8 4.3 5.5zm149.3-29.8c2.2.9 4 1.5 5.6 1.9 1-.8 2.1-1.4 3.4-2 1.4-4.3 2.6-7.7 2.5-8.5 0-1.6-1.5-3-3-4-.7-.5-1.5-.9-2-1.2-.3-.1-.5-.3-.7-.3-.2-.1-.3-.1-.3-.1s-1.5-.6-3.2-.9c-.9-.2-1.8-.3-2.7-.2-.9.1-1.7.4-2.2.9-.6.5-2.1 3.4-3.9 7.2.7 1.5 1.1 3 1.3 4.6 1.6 1 3.3 2 5.2 2.6zm-103.3 1.6c1.7-.4 3.5-1 5.6-1.9 1.9-.7 3.6-1.6 5.2-2.6.2-1.3.5-2.6 1-3.8-2-4-3.6-7.2-4.2-7.8-.6-.5-1.4-.8-2.2-.9-.9-.1-1.8 0-2.7.2-1.8.3-3.2.9-3.2.9s-.4.1-.9.4c-.5.3-1.3.7-2 1.2-1.5 1-2.9 2.5-3 4 0 .8 1 3.9 2.3 7.9 1.4.7 2.8 1.5 4.1 2.4zm147.5 23.3l.2.2c1.5 1.7 3.3 3.1 5.3 4.3l1 .6c2.4-2.8 4.3-5 4.5-5.7.3-.7.2-1.6 0-2.4-.3-.8-.7-1.7-1.2-2.4-1-1.5-2.1-2.6-2.1-2.6l-.2-.2-.5-.5c-.5-.4-1.1-.9-1.9-1.4-1.5-1-3.4-1.8-4.8-1.2-.7.3-2.8 2-5.5 4.3.3.6.6 1.2.9 1.7 1.2 2 2.7 3.7 4.3 5.3zm-225.7 46.5c.5.6 3.4 2.1 7.1 3.9 1.5-.7 3-1.1 4.7-1.3 1-1.6 1.9-3.3 2.6-5.2.9-2.1 1.5-3.9 1.9-5.6-.8-1-1.4-2.1-2-3.4-4.3-1.4-7.7-2.6-8.5-2.5-1.6 0-3 1.5-4 3-.5.7-.9 1.5-1.2 2-.1.3-.3.5-.3.7-.1.2-.1.3-.1.3s-.6 1.5-.9 3.2c-.2.9-.3 1.8-.2 2.7.1.8.3 1.6.9 2.2z"/><path fill="#999" d="M280.6 344.3c-2.4-1.4-4.9-2.1-7.5-2.1-1 0-2 .1-3 .3h-.1c-2.9.4-5.5 1.8-7.7 4.1-3 3.2-7.5 5.2-12.8 5.5h-.4c-5.3-.4-9.8-2.4-12.7-5.6-2.2-2.3-4.8-3.7-7.7-4.1h-.1c-1-.2-2.1-.3-3.1-.3-2.6 0-5.1.7-7.4 2.1-3.7 2.1-6.1 4.9-7.3 8.4-1.3 3.8-.8 8 1.4 11.2 2.4 3.5 6.3 6.1 10.9 7.1 3.8.6 7.7.2 10.8-1.3 4.7-2.4 9.6-3.7 14.1-3.7h2.5999999999999996c4.6 0 9.4 1.3 14.3 3.8 2.3 1 4.9 1.6 7.6 1.6 1.1 0 2.2-.1 3.2-.3 4.5-1 8.5-3.6 10.9-7.1 2.2-3.2 2.7-7.4 1.4-11.2-1.3-3.4-3.7-6.3-7.4-8.4zm-48.4 13.4c-.4 2.9-3 5-6.2 5.1h-.6c-.2 0-.4 0-.6-.1h-.1c-1.8-.4-3.4-1.5-4.3-3-.9-1.4-1.1-3-.7-4.5.7-2.7 3.2-4.5 6.1-4.5.5 0 .9 0 1.4.1.1 0 .2 0 .3.1 3 .5 5.2 3.6 4.7 6.8zm46.2 2.1c-.9 1.5-2.5 2.6-4.3 3h-.1c-.4.1-.7.1-1.1.1-3.3 0-6-2.1-6.4-5.1-.4-3.3 1.9-6.4 5.3-6.9.4-.1.9-.1 1.4-.1 3 0 5.4 1.8 6.1 4.6.2 1.4-.1 3-.9 4.4zm98.6-120.9c-.3-4.9 1.1-10.3 3.8-15.5 1.5-3.2 1.9-7 1.3-10.8-1-4.5-3.6-8.5-7.1-10.9-2.1-1.4-4.5-2.1-7-2.1-1.4 0-2.8.2-4.2.7-3.5 1.2-6.3 3.6-8.4 7.3-1.9 3.3-2.6 7-1.8 10.6v.1c.4 2.9 1.8 5.5 4.1 7.7 3.2 3 5.2 7.5 5.5 12.8v.4c-.4 5.3-2.4 9.8-5.6 12.7-2.3 2.2-3.7 4.8-4.1 7.7v.1c-.8 3.6-.2 7.2 1.7 10.5 2.1 3.7 4.9 6.1 8.4 7.3 1.4.5 2.8.7 4.3.7 2.5 0 4.9-.7 7-2.1 3.5-2.4 6.1-6.3 7.1-10.9.6-3.8.2-7.6-1.3-10.8-2.7-5.2-4-10.6-3.7-15.5zm-3.3 24.6v.1c-.7 3-3.2 5.2-6.1 5.2-.5 0-.9-.1-1.4-.2-3.2-.8-5.1-4.1-4.4-7.5 0-.1 0-.2.1-.3.6-2.9 3.2-5 6.1-5 .3 0 .6 0 .8.1 2.9.4 5 3 5.1 6.2-.1.6-.1 1-.2 1.4zm-1.1-43.9c-.9 1.3-2.3 2.1-3.8 2.3l-.8.1c-3 0-5.7-2.3-6.1-5.3-.7-3.4 1.2-6.7 4.5-7.5.4-.1.9-.2 1.4-.2 2.9 0 5.5 2.2 6.1 5.3v.1c.2 1.8-.2 3.7-1.3 5.2zm-70.1-77.7c1.1 3.9 3.2 6.9 6.2 8.7l.1.1c2.4 1.7 5.2 2.6 8.2 2.6h.1c2.3-.1 4.5.3 7 1.3 2.1.9 4.2 2.2 6 3.8l.2.2c1.6 1.8 2.9 3.9 3.8 6 1 2.4 1.4 4.7 1.3 7 0 3.1.8 5.9 2.5 8.3l.1.1c1.8 3 4.8 5.1 8.7 6.2h.1c1.5.5 3.1.7 4.7.7 2.3 0 4.4-.5 6.4-1.4 3.6-1.7 6-4.9 7-8.9.8-4-.2-8.6-2.7-12.7-2.1-3.1-5.2-5.4-8.6-6.7-3-1.1-5.3-2.1-7.3-3.3-2.3-1.4-4.5-3.1-6.3-5.1-2-1.8-3.7-3.9-5.1-6.3-1.2-2-2.2-4.3-3.3-7.3-1.3-3.4-3.6-6.4-6.7-8.6-3.1-1.9-6.6-3-9.9-3-1 0-1.9.1-2.8.3-4 1-7.2 3.4-9 7-1.6 3.3-1.8 7.2-.7 11zm43.7 24.8c1-.7 2.1-1.1 3.4-1.1 2.1 0 4.2 1.1 5.5 2.9l.1.1c1 1.6 1.3 3.6.9 5.3-.4 1.5-1.3 2.8-2.6 3.5-.9.5-2 .8-3.1.8-2.2 0-4.2-1.2-5.4-3-.8-1.2-1.2-2.6-1.2-4 0-1.8.9-3.4 2.4-4.5zm-34.9-31.5c1-1.7 2.9-2.8 5.1-2.8 1.3 0 2.6.4 3.8 1.1l.2.1c1.5 1.1 2.5 2.7 2.8 4.5.2 1.6-.1 3.1-1.1 4.4-1.2 1.5-2.9 2.4-4.9 2.4-1.3 0-2.6-.4-3.8-1.2-2.8-1.8-3.8-5.6-2.1-8.5zm-167.5 134.4c1.9-3.3 2.6-7 1.8-10.6v-.1c-.4-2.9-1.8-5.5-4.1-7.7-3.2-3-5.2-7.5-5.5-12.7v-.4c.4-5.3 2.4-9.8 5.6-12.7 2.3-2.2 3.7-4.8 4.1-7.7v-.1c.8-3.6.2-7.2-1.7-10.5-2.1-3.7-4.9-6.1-8.4-7.3-1.4-.5-2.8-.7-4.3-.7-2.5 0-4.9.7-7 2.1-3.5 2.4-6.1 6.3-7.1 10.9-.6 3.8-.2 7.6 1.3 10.8 2.7 5.2 4 10.6 3.7 15.5.3 4.9-1.1 10.3-3.8 15.5-1.5 3.2-1.9 7-1.3 10.8 1 4.5 3.6 8.5 7.1 10.9 2.1 1.4 4.5 2.1 7 2.1 1.4 0 2.8-.2 4.2-.7 3.5-1.3 6.4-3.8 8.4-7.4zm-18.3-55.7v-.4c.7-3 3.2-5.2 6.1-5.2.5 0 .9.1 1.4.2 3.2.8 5.1 4.1 4.4 7.5 0 .1 0 .2-.1.3-.6 2.9-3.2 5-6.1 5-.3 0-.6 0-.8-.1-2.9-.4-5-3-5.1-6.2.1-.4.2-.7.2-1.1zm6.1 54.3c-2.9 0-5.5-2.2-6.1-5.3v-.1c-.3-1.9.2-3.8 1.3-5.3.9-1.3 2.3-2.1 3.8-2.3l.8-.1c3 0 5.7 2.3 6.1 5.3.7 3.4-1.2 6.6-4.5 7.5-.5.3-1 .3-1.4.3zm56-144.7c-.9-.2-1.9-.3-2.9-.3-3.3 0-6.7 1-9.9 2.9-3.1 2.1-5.4 5.2-6.7 8.6-1.1 3-2.1 5.3-3.3 7.2-1.4 2.3-3.1 4.5-5.1 6.3-1.8 2-4 3.7-6.3 5.1-2.6 1.5-5.4 2.6-7.3 3.3-3.4 1.2-6.4 3.6-8.6 6.7-2.5 4.1-3.5 8.7-2.7 12.7 1 4.1 3.4 7.2 7 9 2 1 4.2 1.5 6.4 1.5 1.5 0 3.1-.2 4.6-.7h.1c3.9-1.1 6.9-3.2 8.7-6.2l.1-.1c1.7-2.5 2.6-5.3 2.6-8.4-.1-2.3.3-4.5 1.3-7 .9-2.1 2.2-4.2 3.8-6l.2-.2c1.8-1.6 3.9-2.9 6-3.8 2.1-.9 4.1-1.3 6-1.3h1.2c3 0 5.7-.9 8.1-2.5l.1-.1c3-1.8 5.1-4.8 6.2-8.7v-.1c1.2-3.7.9-7.6-.7-11-1.6-3.5-4.8-6-8.9-6.9zm-32.9 51.2c-1.1 1.9-3.2 3-5.4 3-1.1 0-2.2-.3-3.1-.8-1.3-.8-2.2-2-2.6-3.5-.4-1.7-.1-3.7.9-5.3l.1-.2c1.3-1.8 3.3-2.9 5.4-2.9 1.3 0 2.4.4 3.4 1.1 2.7 2 3.3 5.8 1.3 8.6zm31.6-31.4l-.5.3c-1 .6-2.1.9-3.2.9-2 0-3.7-.9-4.9-2.4-.9-1.2-1.3-2.8-1-4.4.3-1.8 1.3-3.4 2.8-4.5l.1-.1c1.2-.7 2.4-1.1 3.7-1.1 2.2 0 4.1 1 5.1 2.8 1.8 2.9.8 6.7-2.1 8.5zm90-37.1c-3.8-.6-7.7-.2-10.8 1.3-4.7 2.4-9.6 3.7-14.1 3.7h-2.5999999999999996c-4.6 0-9.4-1.3-14.3-3.8-3.2-1.5-7-1.9-10.8-1.3-4.5 1-8.5 3.5-10.9 7.1-2.2 3.2-2.7 7.4-1.4 11.2 1.2 3.5 3.6 6.3 7.3 8.4 2.4 1.4 4.9 2.1 7.5 2.1 1 0 2-.1 3-.3h.1c2.9-.4 5.5-1.8 7.7-4.1 3-3.2 7.5-5.2 12.7-5.5h.4c5.3.4 9.8 2.4 12.7 5.6 2.2 2.3 4.8 3.7 7.7 4.1h.1c1 .2 2.1.3 3.1.3 2.6 0 5.1-.7 7.4-2.1 3.7-2.1 6.1-4.9 7.3-8.4 1.3-3.8.8-8-1.4-11.2-2.2-3.5-6.2-6.1-10.7-7.1zm-48.7 20.1c-.4.1-.9.1-1.4.1-3 0-5.4-1.8-6.1-4.6-.4-1.5-.1-3.1.8-4.5.9-1.5 2.5-2.6 4.3-3h.1c.4-.1.7-.1 1.1-.1 3.3 0 6 2.1 6.4 5.1.5 3.4-1.8 6.5-5.2 7zm52.2-4.3c-.7 2.7-3.2 4.5-6.1 4.5-.5 0-.9 0-1.4-.1-.1 0-.2 0-.3-.1-3.2-.7-5.4-3.7-4.9-6.9.4-2.9 3-5 6.2-5.1h.2c.4 0 .8 0 1.2.1h.1c1.8.4 3.4 1.5 4.3 3 .8 1.5 1.1 3.1.7 4.6zm84.6 179.2c-1-4-3.4-7.2-7-9-2-1-4.2-1.5-6.4-1.5-1.5 0-3.1.2-4.6.7h-.1c-3.9 1.1-6.9 3.2-8.7 6.2l-.1.1c-1.7 2.5-2.6 5.3-2.6 8.4.1 2.3-.3 4.5-1.3 7-.9 2.2-2.2 4.2-3.8 6l-.2.2c-1.8 1.6-3.9 2.9-6 3.8-2.4 1-4.7 1.4-7 1.3h-.2c-3 0-5.7.9-8.1 2.5l-.1.1c-3 1.8-5.1 4.8-6.2 8.7v.1c-1.2 3.7-.9 7.6.7 11 1.7 3.6 4.9 6 8.9 7 .9.2 1.9.3 2.9.3 3.3 0 6.7-1 9.9-2.9 3.1-2.1 5.4-5.2 6.7-8.6.7-1.9 1.7-4.7 3.3-7.3 1.4-2.4 3.1-4.5 5.1-6.3 1.8-2 3.9-3.7 6.3-5.1 2-1.2 4.3-2.2 7.3-3.3 3.4-1.2 6.4-3.6 8.6-6.7 2.5-4.1 3.5-8.7 2.7-12.7zm-41.8 38.3c-.3 1.8-1.3 3.4-2.8 4.5l-.1.1c-1.2.7-2.4 1.1-3.7 1.1-2.2 0-4.1-1-5.1-2.8-1.7-2.9-.7-6.7 2.2-8.4 1.1-.8 2.4-1.2 3.7-1.2 1.9 0 3.7.9 4.9 2.4.8 1.1 1.1 2.7.9 4.3zm32.1-30.4l-.1.1c-1.3 1.8-3.3 2.9-5.4 2.9-1.3 0-2.4-.4-3.4-1.1-2.6-2-3.2-5.8-1.2-8.6 1.1-1.8 3.2-3 5.4-3 1.1 0 2.2.3 3.1.8 1.3.8 2.2 2 2.6 3.6.3 1.7 0 3.7-1 5.3zm-158 26.2c-1.1-3.9-3.2-6.9-6.2-8.7l-.1-.1c-2.4-1.7-5.2-2.6-8.2-2.6h-1c-2 0-4-.4-6.1-1.3-2.1-.9-4.2-2.2-6-3.8l-.2-.2c-1.6-1.8-2.9-3.9-3.8-6-1-2.4-1.4-4.7-1.3-7 0-3.1-.8-5.9-2.5-8.3l-.1-.1c-1.8-3-4.8-5.1-8.7-6.2h-.1c-1.5-.5-3.1-.7-4.6-.7-2.3 0-4.4.5-6.4 1.4-3.6 1.7-6 4.9-7 8.9-.8 4 .2 8.6 2.7 12.7 2.1 3.1 5.2 5.4 8.6 6.7 1.9.7 4.7 1.7 7.3 3.3 2.3 1.4 4.4 3.1 6.3 5.1 2 1.8 3.7 4 5.1 6.3 1.2 2 2.2 4.2 3.2 7.3 1.3 3.4 3.6 6.4 6.7 8.6 3.1 1.9 6.7 3 9.9 3 1 0 1.9-.1 2.8-.3 4-1 7.2-3.4 9-7 1.6-3.3 1.9-7.2.7-11zm-41.2-29.4c-.1 1.8-1 3.5-2.4 4.6-1 .7-2.1 1.1-3.4 1.1-1.9 0-3.8-.9-5.1-2.4-.1-.1-.3-.3-.4-.5l-.1-.2c-1-1.6-1.3-3.6-.9-5.3.4-1.5 1.3-2.8 2.6-3.5.9-.5 2-.8 3.1-.8 2.2 0 4.2 1.2 5.4 3l.3.5c.7 1.1.9 2.3.9 3.5zm32.4 36.1c-1 1.7-2.9 2.8-5.1 2.8-1.3 0-2.6-.4-3.8-1.1l-.1-.1c-1.5-1.1-2.5-2.7-2.8-4.5-.2-1.6.1-3.1 1.1-4.4 1.2-1.5 2.9-2.4 4.9-2.4 1.3 0 2.6.4 3.8 1.2 2.8 1.8 3.7 5.6 2 8.5zm68.9-103.4c0-4-3.2-7.2-7.2-7.2s-7.2 3.2-7.2 7.2 3.2 7.2 7.2 7.2 7.2-3.3 7.2-7.2z"/></g></g></svg>